<mxfile host="app.diagrams.net" modified="2022-09-07T08:50:13.879Z" agent="5.0 (Windows NT 10.0; Win64; x64) AppleWebKit/537.36 (KHTML, like Gecko) Chrome/104.0.0.0 Safari/537.36" etag="OInx6OoIWJvweDHcWnHZ" version="20.2.8" type="github">
  <diagram id="C5RBs43oDa-KdzZeNtuy" name="Page-1">
    <mxGraphModel dx="676" dy="383" grid="1" gridSize="10" guides="1" tooltips="1" connect="1" arrows="1" fold="1" page="1" pageScale="1" pageWidth="827" pageHeight="1169" math="0" shadow="0">
      <root>
        <mxCell id="WIyWlLk6GJQsqaUBKTNV-0" />
        <mxCell id="WIyWlLk6GJQsqaUBKTNV-1" parent="WIyWlLk6GJQsqaUBKTNV-0" />
        <mxCell id="WIyWlLk6GJQsqaUBKTNV-2" value="" style="rounded=0;html=1;jettySize=auto;orthogonalLoop=1;fontSize=11;endArrow=block;endFill=0;endSize=8;strokeWidth=1;shadow=0;labelBackgroundColor=none;edgeStyle=orthogonalEdgeStyle;" parent="WIyWlLk6GJQsqaUBKTNV-1" source="WIyWlLk6GJQsqaUBKTNV-3" edge="1">
          <mxGeometry relative="1" as="geometry">
            <mxPoint x="220" y="170" as="targetPoint" />
          </mxGeometry>
        </mxCell>
        <mxCell id="WIyWlLk6GJQsqaUBKTNV-3" value="获得msg" style="rounded=1;whiteSpace=wrap;html=1;fontSize=12;glass=0;strokeWidth=1;shadow=0;" parent="WIyWlLk6GJQsqaUBKTNV-1" vertex="1">
          <mxGeometry x="160" y="80" width="120" height="40" as="geometry" />
        </mxCell>
        <mxCell id="fDrEziM3XHzB6xiFscyr-9" value="" style="edgeStyle=orthogonalEdgeStyle;rounded=0;orthogonalLoop=1;jettySize=auto;html=1;" edge="1" parent="WIyWlLk6GJQsqaUBKTNV-1" source="WIyWlLk6GJQsqaUBKTNV-11" target="fDrEziM3XHzB6xiFscyr-8">
          <mxGeometry relative="1" as="geometry" />
        </mxCell>
        <mxCell id="WIyWlLk6GJQsqaUBKTNV-11" value="获得图片RGB" style="rounded=1;whiteSpace=wrap;html=1;fontSize=12;glass=0;strokeWidth=1;shadow=0;" parent="WIyWlLk6GJQsqaUBKTNV-1" vertex="1">
          <mxGeometry x="160" y="320" width="120" height="40" as="geometry" />
        </mxCell>
        <mxCell id="fDrEziM3XHzB6xiFscyr-0" value="LSB_encode" style="whiteSpace=wrap;html=1;" vertex="1" parent="WIyWlLk6GJQsqaUBKTNV-1">
          <mxGeometry x="30" y="30" width="120" height="60" as="geometry" />
        </mxCell>
        <mxCell id="fDrEziM3XHzB6xiFscyr-4" style="edgeStyle=orthogonalEdgeStyle;rounded=0;orthogonalLoop=1;jettySize=auto;html=1;exitX=0.5;exitY=1;exitDx=0;exitDy=0;entryX=0.5;entryY=0;entryDx=0;entryDy=0;" edge="1" parent="WIyWlLk6GJQsqaUBKTNV-1" source="fDrEziM3XHzB6xiFscyr-1" target="fDrEziM3XHzB6xiFscyr-3">
          <mxGeometry relative="1" as="geometry" />
        </mxCell>
        <mxCell id="fDrEziM3XHzB6xiFscyr-1" value="将msg转换为ascii码" style="rounded=1;whiteSpace=wrap;html=1;fontSize=12;glass=0;strokeWidth=1;shadow=0;" vertex="1" parent="WIyWlLk6GJQsqaUBKTNV-1">
          <mxGeometry x="160" y="170" width="120" height="40" as="geometry" />
        </mxCell>
        <mxCell id="fDrEziM3XHzB6xiFscyr-5" value="" style="edgeStyle=orthogonalEdgeStyle;rounded=0;orthogonalLoop=1;jettySize=auto;html=1;" edge="1" parent="WIyWlLk6GJQsqaUBKTNV-1" source="fDrEziM3XHzB6xiFscyr-3" target="WIyWlLk6GJQsqaUBKTNV-11">
          <mxGeometry relative="1" as="geometry" />
        </mxCell>
        <mxCell id="fDrEziM3XHzB6xiFscyr-3" value="将msg的ascii码转换为8位二进制编码" style="rounded=1;whiteSpace=wrap;html=1;fontSize=12;glass=0;strokeWidth=1;shadow=0;" vertex="1" parent="WIyWlLk6GJQsqaUBKTNV-1">
          <mxGeometry x="160" y="240" width="120" height="40" as="geometry" />
        </mxCell>
        <mxCell id="fDrEziM3XHzB6xiFscyr-6" value="将加密后图片二进制编码转换为整数并输出图片" style="rounded=1;whiteSpace=wrap;html=1;fontSize=12;glass=0;strokeWidth=1;shadow=0;" vertex="1" parent="WIyWlLk6GJQsqaUBKTNV-1">
          <mxGeometry x="160" y="640" width="120" height="40" as="geometry" />
        </mxCell>
        <mxCell id="fDrEziM3XHzB6xiFscyr-11" value="" style="edgeStyle=orthogonalEdgeStyle;rounded=0;orthogonalLoop=1;jettySize=auto;html=1;" edge="1" parent="WIyWlLk6GJQsqaUBKTNV-1" source="fDrEziM3XHzB6xiFscyr-7" target="fDrEziM3XHzB6xiFscyr-6">
          <mxGeometry relative="1" as="geometry" />
        </mxCell>
        <mxCell id="fDrEziM3XHzB6xiFscyr-7" value="利用列表和字符串，提取出图片二进制编码前7位，第8位替换为信息二进制编码" style="rounded=1;whiteSpace=wrap;html=1;fontSize=12;glass=0;strokeWidth=1;shadow=0;" vertex="1" parent="WIyWlLk6GJQsqaUBKTNV-1">
          <mxGeometry x="160" y="470" width="120" height="140" as="geometry" />
        </mxCell>
        <mxCell id="fDrEziM3XHzB6xiFscyr-10" value="" style="edgeStyle=orthogonalEdgeStyle;rounded=0;orthogonalLoop=1;jettySize=auto;html=1;" edge="1" parent="WIyWlLk6GJQsqaUBKTNV-1" source="fDrEziM3XHzB6xiFscyr-8" target="fDrEziM3XHzB6xiFscyr-7">
          <mxGeometry relative="1" as="geometry" />
        </mxCell>
        <mxCell id="fDrEziM3XHzB6xiFscyr-8" value="将图片RGB转换为8位二进制编码" style="rounded=1;whiteSpace=wrap;html=1;fontSize=12;glass=0;strokeWidth=1;shadow=0;" vertex="1" parent="WIyWlLk6GJQsqaUBKTNV-1">
          <mxGeometry x="160" y="400" width="120" height="40" as="geometry" />
        </mxCell>
        <mxCell id="fDrEziM3XHzB6xiFscyr-12" value="LSB_decode" style="whiteSpace=wrap;html=1;" vertex="1" parent="WIyWlLk6GJQsqaUBKTNV-1">
          <mxGeometry x="420" y="30" width="120" height="60" as="geometry" />
        </mxCell>
        <mxCell id="fDrEziM3XHzB6xiFscyr-14" value="获得msg" style="rounded=1;whiteSpace=wrap;html=1;fontSize=12;glass=0;strokeWidth=1;shadow=0;" vertex="1" parent="WIyWlLk6GJQsqaUBKTNV-1">
          <mxGeometry x="160" y="80" width="120" height="40" as="geometry" />
        </mxCell>
        <mxCell id="fDrEziM3XHzB6xiFscyr-37" style="edgeStyle=orthogonalEdgeStyle;rounded=0;orthogonalLoop=1;jettySize=auto;html=1;exitX=0.5;exitY=1;exitDx=0;exitDy=0;entryX=0.5;entryY=0;entryDx=0;entryDy=0;" edge="1" parent="WIyWlLk6GJQsqaUBKTNV-1" source="fDrEziM3XHzB6xiFscyr-15" target="fDrEziM3XHzB6xiFscyr-17">
          <mxGeometry relative="1" as="geometry" />
        </mxCell>
        <mxCell id="fDrEziM3XHzB6xiFscyr-15" value="获得加密图片RGB值" style="rounded=1;whiteSpace=wrap;html=1;fontSize=12;glass=0;strokeWidth=1;shadow=0;" vertex="1" parent="WIyWlLk6GJQsqaUBKTNV-1">
          <mxGeometry x="580" y="80" width="120" height="40" as="geometry" />
        </mxCell>
        <mxCell id="fDrEziM3XHzB6xiFscyr-38" value="" style="edgeStyle=orthogonalEdgeStyle;rounded=0;orthogonalLoop=1;jettySize=auto;html=1;" edge="1" parent="WIyWlLk6GJQsqaUBKTNV-1" source="fDrEziM3XHzB6xiFscyr-17" target="fDrEziM3XHzB6xiFscyr-19">
          <mxGeometry relative="1" as="geometry" />
        </mxCell>
        <mxCell id="fDrEziM3XHzB6xiFscyr-17" value="将图片RGB转换为8位二进制编码" style="rounded=1;whiteSpace=wrap;html=1;fontSize=12;glass=0;strokeWidth=1;shadow=0;" vertex="1" parent="WIyWlLk6GJQsqaUBKTNV-1">
          <mxGeometry x="580" y="160" width="120" height="40" as="geometry" />
        </mxCell>
        <mxCell id="fDrEziM3XHzB6xiFscyr-42" style="edgeStyle=orthogonalEdgeStyle;rounded=0;orthogonalLoop=1;jettySize=auto;html=1;entryX=0.456;entryY=0.032;entryDx=0;entryDy=0;entryPerimeter=0;" edge="1" parent="WIyWlLk6GJQsqaUBKTNV-1" source="fDrEziM3XHzB6xiFscyr-18" target="fDrEziM3XHzB6xiFscyr-22">
          <mxGeometry relative="1" as="geometry" />
        </mxCell>
        <mxCell id="fDrEziM3XHzB6xiFscyr-18" value="将二进制编码转换为ASCII码" style="rounded=1;whiteSpace=wrap;html=1;fontSize=12;glass=0;strokeWidth=1;shadow=0;" vertex="1" parent="WIyWlLk6GJQsqaUBKTNV-1">
          <mxGeometry x="580" y="330" width="120" height="40" as="geometry" />
        </mxCell>
        <mxCell id="fDrEziM3XHzB6xiFscyr-40" style="edgeStyle=orthogonalEdgeStyle;rounded=0;orthogonalLoop=1;jettySize=auto;html=1;entryX=0.5;entryY=0;entryDx=0;entryDy=0;" edge="1" parent="WIyWlLk6GJQsqaUBKTNV-1" source="fDrEziM3XHzB6xiFscyr-19" target="fDrEziM3XHzB6xiFscyr-18">
          <mxGeometry relative="1" as="geometry" />
        </mxCell>
        <mxCell id="fDrEziM3XHzB6xiFscyr-19" value="利用列表提取出图片二进制编码每8位的最后一位" style="rounded=1;whiteSpace=wrap;html=1;fontSize=12;glass=0;strokeWidth=1;shadow=0;" vertex="1" parent="WIyWlLk6GJQsqaUBKTNV-1">
          <mxGeometry x="575" y="227.5" width="130" height="52.5" as="geometry" />
        </mxCell>
        <mxCell id="fDrEziM3XHzB6xiFscyr-26" value="" style="edgeStyle=orthogonalEdgeStyle;rounded=0;orthogonalLoop=1;jettySize=auto;html=1;" edge="1" parent="WIyWlLk6GJQsqaUBKTNV-1" source="fDrEziM3XHzB6xiFscyr-22" target="fDrEziM3XHzB6xiFscyr-25">
          <mxGeometry relative="1" as="geometry" />
        </mxCell>
        <mxCell id="fDrEziM3XHzB6xiFscyr-31" value="" style="edgeStyle=orthogonalEdgeStyle;rounded=0;orthogonalLoop=1;jettySize=auto;html=1;" edge="1" parent="WIyWlLk6GJQsqaUBKTNV-1" source="fDrEziM3XHzB6xiFscyr-22" target="fDrEziM3XHzB6xiFscyr-24">
          <mxGeometry relative="1" as="geometry" />
        </mxCell>
        <mxCell id="fDrEziM3XHzB6xiFscyr-22" value="判断字符是否是ASCII码" style="rounded=1;whiteSpace=wrap;html=1;fontSize=12;glass=0;strokeWidth=1;shadow=0;" vertex="1" parent="WIyWlLk6GJQsqaUBKTNV-1">
          <mxGeometry x="585" y="400" width="120" height="40" as="geometry" />
        </mxCell>
        <mxCell id="fDrEziM3XHzB6xiFscyr-24" value="截断后方，停止录入" style="rounded=1;whiteSpace=wrap;html=1;fontSize=12;glass=0;strokeWidth=1;shadow=0;" vertex="1" parent="WIyWlLk6GJQsqaUBKTNV-1">
          <mxGeometry x="410" y="400" width="120" height="40" as="geometry" />
        </mxCell>
        <mxCell id="fDrEziM3XHzB6xiFscyr-25" value="加入字符串最后输出" style="rounded=1;whiteSpace=wrap;html=1;fontSize=12;glass=0;strokeWidth=1;shadow=0;" vertex="1" parent="WIyWlLk6GJQsqaUBKTNV-1">
          <mxGeometry x="585" y="490" width="120" height="40" as="geometry" />
        </mxCell>
        <mxCell id="fDrEziM3XHzB6xiFscyr-27" value="Yes" style="text;html=1;align=center;verticalAlign=middle;resizable=0;points=[];autosize=1;strokeColor=none;fillColor=none;" vertex="1" parent="WIyWlLk6GJQsqaUBKTNV-1">
          <mxGeometry x="640" y="455" width="40" height="30" as="geometry" />
        </mxCell>
        <mxCell id="fDrEziM3XHzB6xiFscyr-32" value="No" style="text;html=1;align=center;verticalAlign=middle;resizable=0;points=[];autosize=1;strokeColor=none;fillColor=none;" vertex="1" parent="WIyWlLk6GJQsqaUBKTNV-1">
          <mxGeometry x="530" y="395" width="40" height="30" as="geometry" />
        </mxCell>
      </root>
    </mxGraphModel>
  </diagram>
</mxfile>
